<?xml version="1.0" encoding="UTF-8" standalone="no"?>
<!-- Created with Inkscape (http://www.inkscape.org/) -->

<svg
   width="512"
   height="512"
   viewBox="0 0 512 512"
   version="1.1"
   id="svg1"
   xml:space="preserve"
   inkscape:version="1.4.2 (ebf0e940d0, 2025-05-08)"
   sodipodi:docname="empty_cart.svg"
   xmlns:inkscape="http://www.inkscape.org/namespaces/inkscape"
   xmlns:sodipodi="http://sodipodi.sourceforge.net/DTD/sodipodi-0.dtd"
   xmlns="http://www.w3.org/2000/svg"
   xmlns:svg="http://www.w3.org/2000/svg"><sodipodi:namedview
     id="namedview1"
     pagecolor="#ffffff"
     bordercolor="#000000"
     borderopacity="0.25"
     inkscape:showpageshadow="2"
     inkscape:pageopacity="0.0"
     inkscape:pagecheckerboard="0"
     inkscape:deskcolor="#d1d1d1"
     inkscape:document-units="px"
     showguides="true"
     inkscape:zoom="0.97656254"
     inkscape:cx="395.77598"
     inkscape:cy="279.55199"
     inkscape:window-width="1920"
     inkscape:window-height="1011"
     inkscape:window-x="0"
     inkscape:window-y="0"
     inkscape:window-maximized="1"
     inkscape:current-layer="layer1" /><defs
     id="defs1"><inkscape:path-effect
       effect="fillet_chamfer"
       id="path-effect19"
       is_visible="true"
       lpeversion="1"
       nodesatellites_param="F,0,0,1,0,0,0,1 @ F,0,0,1,0,0,0,1 @ F,0,0,1,0,0,0,1 @ F,0,0,1,0,0,0,1"
       radius="0"
       unit="px"
       method="auto"
       mode="F"
       chamfer_steps="1"
       flexible="false"
       use_knot_distance="true"
       apply_no_radius="true"
       apply_with_radius="true"
       only_selected="false"
       hide_knots="false" /><inkscape:path-effect
       effect="fillet_chamfer"
       id="path-effect14"
       is_visible="true"
       lpeversion="1"
       nodesatellites_param="F,0,0,1,0,0,0,1 @ F,0,0,1,0,0,0,1 @ F,0,0,1,0,0,0,1 @ F,0,0,1,0,0,0,1"
       radius="0"
       unit="px"
       method="auto"
       mode="F"
       chamfer_steps="1"
       flexible="false"
       use_knot_distance="true"
       apply_no_radius="true"
       apply_with_radius="true"
       only_selected="false"
       hide_knots="false" /><inkscape:path-effect
       effect="fillet_chamfer"
       id="path-effect12"
       is_visible="true"
       lpeversion="1"
       nodesatellites_param="F,0,0,1,0,0,0,1 @ F,0,0,1,0,0,0,1 @ F,0,0,1,0,0,0,1 @ F,0,0,1,0,0,0,1"
       radius="0"
       unit="px"
       method="auto"
       mode="F"
       chamfer_steps="1"
       flexible="false"
       use_knot_distance="true"
       apply_no_radius="true"
       apply_with_radius="true"
       only_selected="false"
       hide_knots="false" /><inkscape:path-effect
       effect="fillet_chamfer"
       id="path-effect10"
       is_visible="true"
       lpeversion="1"
       nodesatellites_param="F,0,0,1,0,0,0,1 @ F,0,0,1,0,0,0,1 @ F,0,0,1,0,0,0,1 @ F,0,0,1,0,0,0,1"
       radius="0"
       unit="px"
       method="auto"
       mode="F"
       chamfer_steps="1"
       flexible="false"
       use_knot_distance="true"
       apply_no_radius="true"
       apply_with_radius="true"
       only_selected="false"
       hide_knots="false" /><inkscape:path-effect
       effect="fillet_chamfer"
       id="path-effect8"
       is_visible="true"
       lpeversion="1"
       nodesatellites_param="F,0,0,1,0,0,0,1 @ F,0,0,1,0,0,0,1 @ F,0,0,1,0,0,0,1 @ F,0,0,1,0,0,0,1"
       radius="0"
       unit="px"
       method="auto"
       mode="F"
       chamfer_steps="1"
       flexible="false"
       use_knot_distance="true"
       apply_no_radius="true"
       apply_with_radius="true"
       only_selected="false"
       hide_knots="false" /><inkscape:path-effect
       effect="fillet_chamfer"
       id="path-effect6"
       is_visible="true"
       lpeversion="1"
       nodesatellites_param="F,0,0,1,0,0,0,1 @ F,0,0,1,0,0,0,1 @ F,0,0,1,0,0,0,1 @ F,0,0,1,0,0,0,1"
       radius="0"
       unit="px"
       method="auto"
       mode="F"
       chamfer_steps="1"
       flexible="false"
       use_knot_distance="true"
       apply_no_radius="true"
       apply_with_radius="true"
       only_selected="false"
       hide_knots="false" /></defs><g
     inkscape:label="Logo"
     inkscape:groupmode="layer"
     id="layer1"
     transform="matrix(1.7445248,0,0,1.7445248,-134.18862,-94.697561)"><circle
       style="font-variation-settings:'wght' 700;fill:#e95de9;fill-opacity:1;stroke:#000000;stroke-width:0;stroke-dasharray:none;stroke-dashoffset:0;stroke-opacity:1"
       id="path3"
       cx="223.6647"
       cy="201.02756"
       r="146.74483" /><g
       id="g6"
       inkscape:label="Carrinho"
       style="display:inline;fill:#f9f9f9;stroke-width:0;stroke-dasharray:none"
       transform="translate(-36.51788,-64.290204)"><path
         id="path2"
         style="font-variation-settings:'wght' 700;fill:#800080;fill-opacity:1;stroke:#000000;stroke-width:0;stroke-linecap:round;stroke-linejoin:round;stroke-miterlimit:3.5;stroke-dasharray:none;stroke-dashoffset:40.08;stroke-opacity:1;paint-order:markers fill stroke"
         d="m 114.21164,171.95734 c -1.36436,26.26273 46.71883,-1.83078 49.62758,1.16344 l -19.1986,173.59992 c 6.62566,16.60422 16.07569,16.51065 33.2793,16.16016 2.10783,-0.44649 4.18491,-0.83985 6.2793,-1.26367 5.12999,-13.59165 18.12289,-22.60127 32.65039,-22.64063 10.78581,0.005 20.96712,4.98167 27.5957,13.49024 22.3658,-2.16342 44.62232,-2.77484 67.4336,-1.93164 6.62247,-7.34262 16.04177,-11.54143 25.92968,-11.5586 12.08545,0.004 23.31383,6.24233 29.70118,16.50196 11.0135,1.52077 22.20356,3.28557 33.76953,5.48242 8.38923,-10.00389 8.49197,-19.94445 -1.91992,-30.72071 -76.62942,-15.25363 -150.51098,-7.89194 -227.19922,-0.64062 l 23.68876,-181.75953 c -4.32088,-6.37033 -80.93163,10.53422 -81.63728,24.11726 z"
         sodipodi:nodetypes="scccccccccccccs" /><circle
         style="font-variation-settings:'wght' 700;fill:#800080;fill-opacity:1;stroke:#ffffff;stroke-width:0;stroke-linecap:round;stroke-linejoin:round;stroke-miterlimit:3.5;stroke-dasharray:none;stroke-dashoffset:40.08;stroke-opacity:1;paint-order:markers fill stroke"
         id="circle4"
         cx="216.84892"
         cy="373.97729"
         r="21" /><circle
         style="font-variation-settings:'wght' 700;fill:#800080;fill-opacity:1;stroke:#ffffff;stroke-width:0;stroke-linecap:round;stroke-linejoin:round;stroke-miterlimit:3.5;stroke-dasharray:none;stroke-dashoffset:40.08;stroke-opacity:1;paint-order:markers fill stroke"
         id="circle6"
         cx="337.8089"
         cy="373.97729"
         r="21" /></g><g
       id="g10"
       inkscape:label="Livro"
       transform="matrix(1.0590528,0,0,1.0590528,-38.264145,-63.011971)"
       style="display:none"><path
         id="path8"
         style="font-variation-settings:'wght' 700;fill:#ffcc00;fill-opacity:1;stroke:#ffffff;stroke-width:0;stroke-linecap:round;stroke-linejoin:round;stroke-miterlimit:3.5;stroke-dasharray:none;stroke-dashoffset:40.08;stroke-opacity:1;paint-order:markers fill stroke"
         d="M 299.00348,141.82958 284.7993,276.47967 c -52.05333,7.04 -74.66556,16.00072 -117.75889,33.92072 43.09333,-13.44 106.02628,-23.68072 151.67961,-12.80072 l 8.95921,-154.23939 c -7.89512,-0.568 -17.85709,-1.30035 -28.67575,-1.5307 z"
         transform="translate(21.12,3.84)" /><path
         id="path11"
         style="font-variation-settings:'wght' 700;fill:#ffcc00;fill-opacity:1;stroke:#ffffff;stroke-width:0;stroke-linecap:round;stroke-linejoin:round;stroke-miterlimit:3.5;stroke-dasharray:none;stroke-dashoffset:40.08;stroke-opacity:1;paint-order:markers fill stroke"
         d="m 317.69036,126.22303 c -6.95922,0.68612 -13.95096,1.69912 -20.90791,3.17943 l -15.00456,142.24275 c -30.93333,-3.2 -69.54557,12.80032 -96.6389,38.40032 l 0.7174,-4.1624 -1.92721,5.94023 c 43.09333,-17.92 65.70741,-26.88072 117.76074,-33.92072 z" /><path
         style="font-variation-settings:'wght' 700;fill:#e10000;fill-opacity:1;stroke:#ffffff;stroke-width:0;stroke-linecap:round;stroke-linejoin:round;stroke-miterlimit:3.5;stroke-dasharray:none;stroke-dashoffset:40.08;stroke-opacity:1;paint-order:markers fill stroke"
         d="m 188.16,314.88 25.6,-148.48 c 25.81333,-29.86667 56.74667,-38.61333 87.04,-41.6 l -16,151.68 c -30.93333,-3.2 -69.54667,12.8 -96.64,38.4 z"
         id="path18"
         sodipodi:nodetypes="ccccc"
         inkscape:original-d="m 188.16,314.88 25.6,-148.48 c 25.81333,-29.86667 56.74667,-38.61333 87.04,-41.6 l -16,151.68 c -30.93333,-3.2 -69.54667,12.8 -96.64,38.4 z"
         inkscape:path-effect="#path-effect19"
         transform="translate(-7.8560734,-9.0647012)" /></g><path
       style="font-variation-settings:'wght' 700;display:none;opacity:1;fill:#ffffff;fill-opacity:1;stroke:#f2f2f2;stroke-width:1.83572;stroke-linecap:round;stroke-linejoin:round;stroke-miterlimit:3.5;stroke-dasharray:none;stroke-dashoffset:40.08;stroke-opacity:1;paint-order:markers fill stroke"
       d="m 229.4216,88.01823 c -7.89788,22.08738 -19.27355,30.07644 -31.50437,49.10918 -0.79158,8.65726 2.96321,17.13404 2.83887,27.25677 -4.42066,-2.97631 -8.04239,-4.77776 -9.75623,-12.68849 l -3.90018,24.67207 9.12655,15.97811 c -4.00705,0.43078 -7.05546,-1.25318 -11.00145,-3.28961 2.89188,10.49543 7.89846,18.0537 14.72373,25.14202 0.29104,-22.00906 6.49864,-47.30773 8.90923,-62.50259 2.83048,-10.53459 7.0849,-21.18666 12.92305,-29.37153 -4.36094,9.908 -4.5664,19.6985 -7.69138,30.07644 l -6.97779,61.09277 c 6.5603,-8.65481 15.46097,-13.31509 23.52957,-37.47806 -5.51395,4.50363 -9.47238,8.77229 -17.35962,8.57648 2.43736,-5.95263 5.49034,-12.14023 9.28115,-17.62291 l 8.55758,-6.69671 c -0.30086,-7.28414 -1.02934,-11.98358 1.87009,-19.50269 l -11.819,6.46173 c -1.03705,-3.75955 1.01342,-6.81419 2.35898,-9.86883 4.37196,-5.75681 8.02496,-8.45899 13.58122,-12.33604 1.63201,-14.76466 -4.0072,-23.71367 -7.69,-37.00811 z"
       id="path19"
       inkscape:label="Pena"
       sodipodi:nodetypes="ccccccccccccccccccccc" /><path
       style="font-variation-settings:'wght' 700;fill:#f9f9f9;fill-opacity:0;stroke:#800080;stroke-width:1.71967;stroke-dasharray:6.87866, 1.71967;stroke-dashoffset:0;stroke-opacity:1"
       d="m 307.27654,91.119041 c -45.40175,27.405729 -164.7483,49.472279 -146.30762,112.584219 11.32761,37.35515 121.23126,-21.01225 103.24545,-47.73155 -13.40289,-12.53818 -42.62983,-6.39879 -58.62682,18.15875 -34.54308,70.38829 20.82235,80.2106 76.78557,80.93612"
       id="path1"
       sodipodi:nodetypes="ccccc" /><ellipse
       style="font-variation-settings:'wght' 700;fill:#800080;fill-opacity:1;stroke:#000000;stroke-width:0;stroke-dasharray:none;stroke-dashoffset:0;stroke-opacity:1"
       id="path4"
       cx="231.64526"
       cy="-232.12369"
       rx="4.0354829"
       ry="7.1538105"
       transform="rotate(60)" /><ellipse
       style="font-variation-settings:'wght' 700;fill:#800080;fill-opacity:1;stroke:#000000;stroke-width:0;stroke-dasharray:none;stroke-dashoffset:0;stroke-opacity:1"
       id="ellipse4"
       cx="236.3427"
       cy="146.41698"
       rx="3.7100382"
       ry="5.235672"
       transform="matrix(0.98428631,-0.17657989,0.55415111,0.83241609,0,0)" /><ellipse
       style="font-variation-settings:'wght' 700;fill:#e95de9;fill-opacity:1;stroke:#000000;stroke-width:0;stroke-dasharray:none;stroke-dashoffset:0;stroke-opacity:1"
       id="ellipse5"
       cx="353.12473"
       cy="-179.70081"
       rx="3.7100382"
       ry="5.235672"
       transform="matrix(0.71532519,0.69879172,-0.35589798,0.93452481,0,0)" /></g></svg>
